<?xml version="1.0" encoding="UTF-8"?>
<!DOCTYPE svg PUBLIC "-//W3C//DTD SVG 1.1//EN" "http://www.w3.org/Graphics/SVG/1.1/DTD/svg11.dtd">
<svg version="1.1" xmlns="http://www.w3.org/2000/svg" xmlns:xlink="http://www.w3.org/1999/xlink" x="0" y="0" width="944" height="704" viewBox="0, 0, 944, 704">
 
  <g id="Layer_1">
    <g>
      <path d="M355.125,564.5 C231.896,564.5 132,464.604 132,341.375 C132,218.146 231.896,118.25 355.125,118.25 C478.353,118.25 578.25,218.146 578.25,341.375 C578.25,464.604 478.353,564.5 355.125,564.5 z" fill="#6196F8"/>
      <path d="M588.875,458.25 C465.646,458.25 365.75,358.353 365.75,235.125 C365.75,111.896 465.646,12 588.875,12 C712.104,12 812,111.896 812,235.125 C812,358.353 712.104,458.25 588.875,458.25 z" fill="#6196F8"/>
      <path d="M557,692 C433.771,692 333.875,592.104 333.875,468.875 C333.875,345.647 433.771,245.75 557,245.75 C680.229,245.75 780.125,345.647 780.125,468.875 C780.125,592.104 680.229,692 557,692 z" fill="#6196F8"/>
      <path d="M482.5,558.75 L576.5,558.75 L576.5,488.25 L576.5,441.25 L576.5,394.25 L529.5,406 L482.5,394.25 z" fill="#000000"/>
      <path d="M529.5,406 C464.607,406 412,353.393 412,288.5 C412,223.606 464.607,171 529.5,171 C594.393,171 647,223.606 647,288.5 C647,353.393 594.393,406 529.5,406 z" fill="#D12054"/>
      <path d="M529.5,382.5 C477.585,382.5 435.5,340.415 435.5,288.5 C435.5,236.585 477.585,194.5 529.5,194.5 C581.415,194.5 623.5,236.585 623.5,288.5 C623.5,340.415 581.415,382.5 529.5,382.5 z" fill="#FFFFFF"/>
      <path d="M482,341 L532,341 L532,351 L482,351 z" fill="#D12054"/>
      <path d="M482,241 L532,241 L532,251 L482,251 z" fill="#D12054" id="Shape"/>
      <path d="M522,291 L572,291 L572,301 L522,301 z" fill="#D12054"/>
    </g>
  </g>
</svg>
