<?xml version="1.0" encoding="UTF-8"?>
<!DOCTYPE svg PUBLIC "-//W3C//DTD SVG 1.1//EN" "http://www.w3.org/Graphics/SVG/1.1/DTD/svg11.dtd">
<svg version="1.1" xmlns="http://www.w3.org/2000/svg" xmlns:xlink="http://www.w3.org/1999/xlink" x="0" y="0" width="650" height="819" viewBox="0, 0, 650, 819">
  <defs>
    <clipPath id="Clip_1">
      <path d="M-0,751 L650,751 L650,1570 L-0,1570 z"/>
    </clipPath>
  </defs>
  <g id="Layer_2" transform="translate(0, -751)">
    <g>
      <path d="M-0,751 L650,751 L650,1570 L-0,1570 z" fill="#FFFFFF"/>
      <g clip-path="url(#Clip_1)">
        <path d="M331.874,840.001 C455.103,840.001 554.999,939.897 554.999,1063.126 C555.077,1115.026 536.579,1165.534 503.601,1205.494 C516.711,1234.232 522.726,1265.4 523.124,1296.876 C523.124,1420.104 423.228,1520.001 300,1520.001 C214.275,1520.197 135.457,1469.38 98.414,1392.497 L98.124,1392.501 C-25.104,1392.501 -125.001,1292.605 -125.001,1169.375 C-125.001,1046.147 -25.104,946.251 98.124,946.251 C111.969,946.375 125.904,947.338 139.493,950.119 C180.199,881.364 252.31,841.008 331.874,840.001 z" fill="#6196F8"/>
        <text transform="matrix(1, 0, 0, 1, 250, 1162.5)">
          <tspan x="-144.088" y="24.5" font-family="Exo2-Regular" font-size="62" fill="#DDCCBB">FEATURES</tspan>
        </text>
      </g>
    </g>
  </g>
</svg>

